<svg xmlns="http://www.w3.org/2000/svg" viewBox="0 0 595.28 120.00" width="596" height="120"><path d="M-0.00,30.00 C119.06,-3.60 208.35,63.60 327.40,30.00 S505.99,-3.60 595.28,43.44" fill="none" stroke="#FBB034" stroke-width="1.2" stroke-opacity="0.25"/><path d="M-17.86,40.00 C101.20,8.42 190.49,71.58 309.55,40.00 S488.13,8.42 613.14,52.63" fill="none" stroke="#4E84C4" stroke-width="1.2" stroke-opacity="0.33"/><path d="M-35.72,50.00 C83.34,20.43 172.63,79.57 291.69,50.00 S470.27,20.43 631.00,61.83" fill="none" stroke="#4E84C4" stroke-width="1.2" stroke-opacity="0.41"/><path d="M-53.58,60.00 C65.48,32.45 154.77,87.55 273.83,60.00 S452.41,32.45 648.86,71.02" fill="none" stroke="#FBB034" stroke-width="1.2" stroke-opacity="0.49"/><path d="M-71.43,70.00 C47.62,44.46 136.91,95.54 255.97,70.00 S434.55,44.46 666.71,80.21" fill="none" stroke="#4E84C4" stroke-width="1.2" stroke-opacity="0.25"/><path d="M-89.29,80.00 C29.76,56.48 119.06,103.52 238.11,80.00 S416.70,56.48 684.57,89.41" fill="none" stroke="#4E84C4" stroke-width="1.2" stroke-opacity="0.33"/><path d="M-107.15,90.00 C11.91,68.50 101.20,111.50 220.25,90.00 S398.84,68.50 702.43,98.60" fill="none" stroke="#FBB034" stroke-width="1.2" stroke-opacity="0.41"/></svg>